<svg width="35" height="34" viewBox="0 0 35 34" fill="none" xmlns="http://www.w3.org/2000/svg">
<ellipse cx="17.8065" cy="16.9999" rx="11.0526" ry="10.9286" fill="#74CE53"/>
<path d="M29.9759 13.5059C29.9629 13.4379 29.9341 13.3736 29.8919 13.3179C29.8497 13.2622 29.795 13.2165 29.732 13.1843C29.669 13.152 29.5993 13.134 29.5282 13.1316C29.457 13.1292 29.3862 13.1424 29.3211 13.1704C28.6703 10.2692 26.8743 7.73166 24.3188 6.10262C24.269 6.07308 24.2141 6.05281 24.1567 6.04285C23.4216 5.17248 22.5509 4.4191 21.5762 3.81001C21.4995 3.76252 21.4103 3.73729 21.3193 3.73729C21.2283 3.73729 21.1392 3.76252 21.0624 3.81001C20.9361 3.88837 20.8103 3.96939 20.6865 4.05545C19.9047 3.06981 18.9553 2.22131 17.8791 1.54662C17.8024 1.49927 17.7133 1.47412 17.6225 1.47412C17.5316 1.47412 17.4425 1.49927 17.3658 1.54662C16.2496 2.2491 15.2696 3.13731 14.4709 4.17046C14.2924 4.04323 14.1127 3.92157 13.9331 3.81107C13.8564 3.76384 13.7674 3.73876 13.6766 3.73876C13.5858 3.73876 13.4968 3.76384 13.4201 3.81107C12.4474 4.42179 11.5778 5.17497 10.8422 6.04392C10.7849 6.05399 10.73 6.07425 10.6803 6.10368C8.12484 7.73228 6.32951 10.2702 5.68048 13.1714C5.61534 13.1433 5.54449 13.1299 5.47324 13.1321C5.40199 13.1343 5.33219 13.1522 5.26906 13.1844C5.20593 13.2166 5.15111 13.2622 5.10872 13.3179C5.06632 13.3735 5.03743 13.4378 5.02423 13.5059C4.00376 18.5838 4.82845 22.6314 7.34517 24.9052C8.71576 26.1212 10.5166 26.7766 12.3723 26.7348C13.0917 26.7307 13.8086 26.6523 14.5109 26.501V30.733C14.5115 31.2083 14.7061 31.664 15.0521 32.0002C15.3981 32.3363 15.8672 32.5254 16.3566 32.5259H18.8913C19.3807 32.5254 19.8498 32.3363 20.1958 32.0002C20.5418 31.664 20.7365 31.2083 20.737 30.733V26.5528C21.3586 26.6715 21.9903 26.7325 22.6238 26.735C24.5069 26.7783 26.3326 26.1034 27.7097 24.8549C30.1824 22.5724 30.9868 18.5421 29.9759 13.5059ZM28.4808 13.9162L27.1519 15.1742C27.0357 14.8834 26.783 14.3373 26.59 13.985C26.9963 12.1698 26.5801 10.1736 25.7574 8.4789C27.2177 9.97712 28.1685 11.8754 28.4808 13.9162ZM14.3572 10.8908C15.1489 9.47952 16.2664 8.26558 17.622 7.34415C18.9335 8.23141 20.0224 9.39411 20.8081 10.746C20.0038 11.445 19.2984 12.2444 18.7103 13.1234C18.508 12.9677 18.1692 12.7286 17.8783 12.5507C17.8015 12.5037 17.7125 12.479 17.6218 12.4793C17.5311 12.4795 17.4423 12.5049 17.3658 12.5523C17.023 12.7684 16.6918 13.0013 16.3733 13.2501C15.8063 12.3842 15.1289 11.5915 14.3572 10.8908ZM15.6456 13.8817C14.0303 15.3982 12.9012 17.3364 12.3947 19.4625C12.3934 19.4678 12.3915 19.4734 12.3904 19.4787L8.60161 15.8885C9.34477 13.8003 10.7466 11.9928 12.6077 10.7229C12.8983 10.9163 13.1779 11.1249 13.4453 11.3477C14.3125 12.0736 15.0552 12.929 15.6456 13.8817ZM19.4574 13.7136C20.2171 12.535 21.2141 11.5176 22.3883 10.7224C24.2474 11.9953 25.6494 13.8019 26.3975 15.8885L22.8133 19.2845C22.2679 17.1711 21.1091 15.2544 19.4749 13.7622L19.4445 13.7343C19.4486 13.7277 19.453 13.7202 19.4574 13.7136ZM21.32 4.75962C24.1744 6.6591 25.8856 9.98765 25.7874 12.7201C24.759 11.2982 23.1947 10.0294 22.592 9.75045C22.52 9.71513 22.4397 9.69864 22.3591 9.7026C22.2785 9.70656 22.2004 9.73083 22.1324 9.77303C21.9577 9.8806 21.7332 10.0302 21.5634 10.1515C20.8456 8.9894 19.9322 7.95244 18.8613 7.08384C19.5461 6.18502 20.3764 5.40009 21.32 4.75962ZM17.6229 2.49703C18.4996 3.08611 19.2777 3.80284 19.9299 4.62203C19.2423 5.18574 18.6253 5.82595 18.0915 6.52948C18.0212 6.48326 17.9508 6.43828 17.8804 6.39454C17.8036 6.34706 17.7145 6.32184 17.6234 6.32184C17.5324 6.32184 17.4432 6.34706 17.3664 6.39454C17.2388 6.47317 17.1135 6.55436 16.9907 6.63812C16.4738 5.94634 15.8794 5.31256 15.2183 4.74846C15.8904 3.87767 16.7023 3.11749 17.6229 2.49703ZM13.6769 4.75935C14.6645 5.42983 15.5285 6.25746 16.2324 7.20735C15.184 8.07895 14.2963 9.11782 13.6074 10.2793C13.384 10.113 13.0956 9.92045 12.8599 9.7709C12.7833 9.72464 12.6948 9.70035 12.6046 9.70082C12.5144 9.70129 12.4262 9.7265 12.3502 9.77356C11.1208 10.5528 10.0556 11.5525 9.21138 12.7191C9.11294 9.8474 10.9551 6.57012 13.6769 4.75935ZM9.24173 8.47943C8.41978 10.1709 8.00361 12.1732 8.40939 13.985C8.20978 14.3495 7.96396 14.8823 7.84747 15.1742L6.52103 13.9189C6.83112 11.8773 7.7811 9.978 9.24173 8.47943ZM7.99704 24.2251C5.86943 22.3036 5.10271 18.8861 5.80681 14.5421L12.2192 20.6153C12.0622 22.5236 12.6324 24.3248 13.9804 25.6595C11.5999 26.0792 9.49986 25.5814 7.99704 24.2251ZM19.78 30.733C19.7797 30.9618 19.686 31.1812 19.5194 31.3431C19.3528 31.5049 19.1269 31.596 18.8913 31.5962H16.3566C16.121 31.596 15.8951 31.5049 15.7285 31.3431C15.5619 31.1812 15.4682 30.9618 15.4679 30.733V26.7637C16.1069 27.1116 16.7844 27.3878 17.4875 27.5872C17.5756 27.6124 17.6693 27.6124 17.7574 27.5872C18.4613 27.3866 19.14 27.1104 19.7808 26.7637L19.78 30.733ZM17.6229 26.6562C14.174 25.6178 12.6838 23.131 13.2574 20.0283C13.6867 17.5048 15.4097 14.975 17.624 13.5019C20.3124 15.285 21.9443 18.3171 22.0834 20.8756C22.23 23.5505 20.8161 25.6978 17.6229 26.6562ZM27.0515 24.1811C25.5933 25.5272 23.5499 26.0524 21.2303 25.6951C22.6795 24.2908 23.2207 22.3562 23.0077 20.4012L29.1931 14.5418C29.8904 18.8486 29.1409 22.2516 27.0515 24.1811Z" fill="black"/>
</svg>
