<?xml version="1.0" encoding="iso-8859-1"?>
<!-- Uploaded to: SVG Repo, www.svgrepo.com, Generator: SVG Repo Mixer Tools -->
<svg fill="#000000" height="800px" width="800px" version="1.1" id="Layer_1" xmlns="http://www.w3.org/2000/svg" xmlns:xlink="http://www.w3.org/1999/xlink" 
	 viewBox="0 0 497.584 497.584" xml:space="preserve">
<g>
	<g>
		<path d="M464.8,144.792v-96c0-26.472-21.528-48-48-48s-48,21.528-48,48v96H188.112L127.96,84.64c0.52-2.96,0.84-5.992,0.84-9.104
			c0-14.224-5.536-27.592-15.6-37.656L91.712,16.392c-10.064-10.064-23.424-15.6-37.656-15.6C24.688,0.792,0.8,24.68,0.8,54.048
			c0,14.224,5.536,27.592,15.6,37.656l21.488,21.488c10.064,10.064,23.424,15.6,37.656,15.6c3.112,0,6.144-0.32,9.112-0.84
			l16.832,16.84H0l33.52,352h430.544l33.52-352H464.8z M384.8,48.792c0-17.648,14.352-32,32-32s32,14.352,32,32v96h-64V48.792z
			 M312.624,160.792h79.608l-2.184,32h-78.152L312.624,160.792z M296.608,160.792l-0.72,32h-94.176l-0.728-32H296.608z
			 M185.704,192.792h-78.16l-2.184-32h79.616L185.704,192.792z M75.544,112.792c-9.952,0-19.304-3.872-26.344-10.912L27.712,80.392
			C20.672,73.352,16.8,64,16.8,54.048c0-20.544,16.712-37.256,37.256-37.256c9.952,0,19.304,3.872,26.344,10.912l21.488,21.488
			c7.04,7.04,10.912,16.392,10.912,26.344C112.8,96.08,96.088,112.792,75.544,112.792z M101.384,122.064
			c8.672-4.832,15.848-12.016,20.688-20.688l43.416,43.416h-41.376L101.384,122.064z M17.6,160.792h71.728l2.184,32H20.648
			L17.6,160.792z M28.264,272.792h68.768l7.488,96H37.408L28.264,272.792z M48.072,480.792l-3.048-32h65.024l2.184,32H48.072z
			 M128.28,480.792l-2.184-32h65.792l0.728,32H128.28z M288.984,480.792h-80.36l-0.728-32h81.816L288.984,480.792z M369.32,480.792
			h-64.336l0.728-32h65.792L369.32,480.792z M449.528,480.792h-64.16l2.184-32h65.024L449.528,480.792z M454.104,432.792h-410.6
			l-4.568-48H48.8v32h16v-32h16v32h16v-32h16v32h16v-32h16v32h16v-32h16v32h16v-32h16v32h16v-32h16v32h16v-32h16v32h16v-32h16v32h16
			v-32h16v32h16v-32h16v32h16v-32h16v32h16v-32h16v32h16v-32h9.872L454.104,432.792z M113.08,272.792h74.472l2.488,96h-69.472
			L113.08,272.792z M203.56,272.792h90.48l-2.488,96h-85.504L203.56,272.792z M307.56,368.792l2.488-96h74.464l-7.488,96H307.56z
			 M460.192,368.792H393.08l7.488-96h68.768L460.192,368.792z M470.864,256.792H26.736l-4.568-48H32.8v32h16v-32h16v32h16v-32h16v32
			h16v-32h16v32h16v-32h16v32h16v-32h16v32h16v-32h16v32h16v-32h16v32h16v-32h16v32h16v-32h16v32h16v-32h16v32h16v-32h16v32h16v-32
			h16v32h16v-32h16v32h16v-32h10.632L470.864,256.792z M406.088,192.792l2.184-32H480l-3.048,32H406.088z"/>
	</g>
</g>
</svg>