<svg width="36" height="35" viewBox="0 0 36 35" fill="none" xmlns="http://www.w3.org/2000/svg">
<ellipse cx="17.3683" cy="17.1875" rx="10.4211" ry="10.3125" fill="#815C9D" fill-opacity="0.8"/>
<path d="M17.1325 27.9182C17.1062 27.9661 17.0759 28.0118 17.0419 28.0549C16.9983 28.0621 16.9576 28.0692 16.9159 28.0771C16.7412 28.111 16.5788 28.1896 16.4457 28.3048C16.3125 28.42 16.2133 28.5676 16.1583 28.7324C16.1033 28.8972 16.0945 29.0733 16.1327 29.2426C16.171 29.4118 16.2549 29.5681 16.3759 29.6953C16.4118 29.7311 16.4441 29.77 16.4727 29.8115C16.4662 29.8539 16.4603 29.8935 16.4555 29.9348C16.4348 30.1068 16.4614 30.281 16.5328 30.4396C16.6042 30.5981 16.7178 30.7354 16.8618 30.8372C17.0058 30.939 17.1751 31.0017 17.3522 31.0189C17.5294 31.036 17.7081 31.007 17.8699 30.9348C17.9165 30.9129 17.9647 30.8946 18.0142 30.8801C18.0542 30.8998 18.0933 30.9178 18.1304 30.9348C18.2922 31.0072 18.471 31.0363 18.6483 31.0193C18.8256 31.0022 18.995 30.9396 19.1391 30.8378C19.2833 30.736 19.3969 30.5987 19.4684 30.4401C19.5399 30.2814 19.5666 30.1071 19.5459 29.9351C19.5389 29.8862 19.5354 29.8368 19.5352 29.7874C19.5664 29.7568 19.5963 29.7265 19.6261 29.6953C19.7469 29.568 19.8307 29.4118 19.8689 29.2425C19.907 29.0733 19.8981 28.8973 19.843 28.7326C19.788 28.5678 19.6888 28.4203 19.5556 28.3052C19.4225 28.1901 19.2602 28.1116 19.0855 28.0776C19.0447 28.0697 19.0028 28.0623 18.9395 28.0457C18.9163 28.0014 18.8927 27.9587 18.8687 27.9177C18.7811 27.769 18.6548 27.6454 18.5023 27.5594C18.3499 27.4735 18.1768 27.4282 18.0006 27.4282C17.8244 27.4282 17.6513 27.4735 17.4988 27.5594C17.3464 27.6454 17.22 27.769 17.1325 27.9177V27.9182ZM18.0637 28.4823C18.1361 28.6183 18.2402 28.7359 18.3677 28.8257C18.4952 28.9156 18.6426 28.9751 18.7981 28.9997C18.8307 29.0046 18.8622 29.0103 18.8926 29.0161L18.9047 29.0434C18.8838 29.065 18.8622 29.0874 18.838 29.111C18.7265 29.2204 18.6429 29.3536 18.5939 29.5C18.5448 29.6465 18.5316 29.802 18.5553 29.9542C18.5601 29.986 18.5646 30.0166 18.5683 30.0469L18.5416 30.0644C18.5134 30.0521 18.4853 30.0387 18.4572 30.0251C18.3156 29.9558 18.1593 29.9196 18.0007 29.9196C17.8422 29.9196 17.6859 29.9558 17.5443 30.0251C17.5161 30.0387 17.488 30.0524 17.4599 30.0644L17.4332 30.0469C17.4368 30.0166 17.4413 29.986 17.4458 29.9559C17.4698 29.8031 17.4566 29.6471 17.4074 29.5001C17.3582 29.3532 17.2742 29.2196 17.1623 29.1099C17.1398 29.0877 17.1182 29.0658 17.0979 29.0445L17.1089 29.0153C17.1393 29.0095 17.1708 29.0038 17.2014 28.9991C17.3571 28.9748 17.5047 28.9154 17.6325 28.8257C17.7604 28.736 17.8648 28.6184 17.9374 28.4823C17.9542 28.4455 17.9795 28.4131 18.0114 28.3875C18.0288 28.4173 18.0466 28.4487 18.0637 28.481V28.4823Z" fill="black"/>
<path d="M7.74851 20.0411C7.76426 19.9935 7.77861 19.947 7.79154 19.9014C7.83787 19.7361 7.83842 19.5617 7.79314 19.3961C7.74786 19.2305 7.65835 19.0795 7.53369 18.9584C7.40903 18.8372 7.25365 18.7503 7.08329 18.7063C6.91293 18.6624 6.73364 18.663 6.56361 18.7081C6.51034 18.724 6.4559 18.7359 6.40076 18.7437C6.3642 18.7182 6.32848 18.6939 6.29445 18.672C6.14644 18.5759 5.97479 18.5198 5.79711 18.5095C5.61944 18.4993 5.44216 18.5351 5.28347 18.6135C5.12478 18.6919 4.9904 18.8099 4.89415 18.9554C4.79789 19.101 4.74323 19.2688 4.73576 19.4417C4.73498 19.4922 4.7298 19.5425 4.72029 19.5921C4.68429 19.6178 4.65007 19.6432 4.61764 19.6681C4.47789 19.7754 4.37006 19.9169 4.3052 20.0782C4.24035 20.2394 4.22082 20.4145 4.24863 20.5855C4.27644 20.7564 4.35058 20.9171 4.46343 21.051C4.57628 21.1849 4.72376 21.2872 4.89073 21.3473C4.93924 21.3639 4.98628 21.3843 5.03136 21.4083C5.04514 21.4488 5.05948 21.4879 5.07382 21.5264C5.13571 21.6888 5.24092 21.8323 5.37867 21.9421C5.51642 22.0519 5.68174 22.1241 5.85767 22.1512C5.90949 22.1592 5.96186 22.1632 6.01432 22.1633C6.16598 22.1631 6.31564 22.1296 6.45204 22.0651C6.58844 22.0007 6.70803 21.907 6.80183 21.7911C6.83236 21.7521 6.86552 21.7151 6.90111 21.6804C6.94611 21.6804 6.98942 21.6804 7.03273 21.6779C7.21059 21.6709 7.38332 21.6179 7.53319 21.5245C7.68306 21.4312 7.80467 21.3007 7.88555 21.1465C7.96642 20.9923 8.00365 20.82 7.99341 20.6472C7.98316 20.4745 7.92582 20.3075 7.82726 20.1633C7.80561 20.13 7.78086 20.0953 7.74851 20.0411ZM6.99617 20.7225C6.96636 20.7225 6.93514 20.7244 6.90054 20.7244C6.74218 20.7255 6.58625 20.7625 6.44515 20.8324C6.30405 20.9023 6.18167 21.0032 6.08773 21.1272C6.06804 21.1532 6.04836 21.1781 6.02895 21.2021L5.99914 21.1972C5.98845 21.1699 5.97748 21.1392 5.96764 21.1094C5.91797 20.9629 5.83373 20.8297 5.72165 20.7205C5.60957 20.6113 5.47276 20.5291 5.32217 20.4805C5.29151 20.4707 5.26198 20.4606 5.23301 20.4502L5.22823 20.419C5.25214 20.4004 5.27717 20.3821 5.30248 20.3643C5.43046 20.2728 5.53463 20.1534 5.60667 20.0157C5.6787 19.878 5.7166 19.7258 5.71732 19.5713C5.71732 19.5407 5.71732 19.5101 5.71929 19.4811L5.74911 19.4666C5.77414 19.483 5.80001 19.5003 5.82533 19.5183C5.95292 19.6086 6.10057 19.6686 6.25636 19.6933C6.41215 19.718 6.57172 19.7067 6.72223 19.6605C6.76097 19.6463 6.80252 19.6409 6.84373 19.6446C6.83389 19.6777 6.82348 19.7119 6.81195 19.7466C6.76432 19.8926 6.75251 20.0474 6.77747 20.1987C6.80242 20.3499 6.86345 20.4933 6.95567 20.6175C6.97423 20.6429 6.99223 20.6678 7.00883 20.6924L6.99617 20.7225Z" fill="black"/>
<path d="M31.3838 19.6696C31.3427 19.6392 31.3039 19.6058 31.2679 19.5698C31.2679 19.5263 31.2679 19.4842 31.2651 19.444C31.258 19.271 31.2037 19.103 31.1077 18.9572C31.0117 18.8114 30.8776 18.6931 30.719 18.6144C30.5604 18.5357 30.3831 18.4995 30.2054 18.5094C30.0276 18.5194 29.8558 18.5751 29.7076 18.671C29.6724 18.6937 29.6367 18.718 29.5802 18.7495C29.5312 18.7344 29.4837 18.7205 29.4367 18.7076C29.2667 18.6627 29.0874 18.6622 28.9171 18.7063C28.7468 18.7503 28.5915 18.8373 28.467 18.9585C28.3424 19.0797 28.2529 19.2307 28.2077 19.3963C28.1625 19.5619 28.163 19.7362 28.2094 19.9015C28.2256 19.9533 28.2379 20.0062 28.2462 20.0598C28.2198 20.0953 28.195 20.1303 28.1722 20.1631C28.0735 20.3072 28.016 20.4743 28.0056 20.6472C27.9952 20.82 28.0324 20.9925 28.1132 21.1468C28.194 21.3011 28.3156 21.4317 28.4655 21.5252C28.6154 21.6187 28.7882 21.6717 28.9662 21.6788C29.0173 21.6796 29.0683 21.6845 29.1186 21.6936C29.1445 21.7277 29.1704 21.7606 29.1968 21.7934C29.2907 21.909 29.4104 22.0024 29.5468 22.0667C29.6832 22.1309 29.8328 22.1642 29.9843 22.1642C30.0368 22.1641 30.0892 22.1601 30.141 22.1521C30.317 22.1249 30.4825 22.0526 30.6203 21.9427C30.7581 21.8327 30.8633 21.6891 30.9251 21.5265C30.9417 21.4793 30.9624 21.4336 30.987 21.3898C31.0292 21.3761 31.0699 21.3624 31.1085 21.3482C31.2755 21.2882 31.423 21.1861 31.536 21.0523C31.6489 20.9185 31.7232 20.7578 31.7512 20.5869C31.7791 20.4159 31.7597 20.2408 31.695 20.0796C31.6303 19.9183 31.5226 19.7767 31.383 19.6693L31.3838 19.6696ZM30.7676 20.4511C30.7395 20.4615 30.7094 20.4716 30.6796 20.4811C30.5289 20.5294 30.3919 20.6113 30.2796 20.7202C30.1673 20.8291 30.0827 20.9621 30.0327 21.1084C30.0226 21.139 30.0116 21.1683 30.0009 21.197L29.9708 21.2019C29.9517 21.1779 29.932 21.153 29.9126 21.1276C29.8184 21.0032 29.6956 20.9019 29.554 20.8319C29.4123 20.7619 29.2559 20.725 29.097 20.7242C29.0649 20.7242 29.0337 20.7242 29.0036 20.7223L28.9912 20.6933C29.0078 20.6687 29.0258 20.6438 29.0441 20.6187C29.1366 20.4945 29.1978 20.351 29.2229 20.1996C29.2479 20.0483 29.2361 19.8933 29.1884 19.7472C29.1737 19.7098 29.1681 19.6696 29.1721 19.6297C29.2064 19.639 29.2418 19.6491 29.2775 19.6603C29.4278 19.7067 29.5872 19.7182 29.7429 19.694C29.8986 19.6697 30.0463 19.6103 30.1742 19.5206C30.2 19.502 30.2259 19.4847 30.2509 19.4683L30.2805 19.4828C30.2805 19.5118 30.2824 19.5424 30.2827 19.5733C30.2836 19.7274 30.3215 19.8792 30.3934 20.0165C30.4653 20.1538 30.5692 20.273 30.6967 20.3644C30.7229 20.383 30.7479 20.4013 30.7718 20.4191L30.7676 20.4511Z" fill="black"/>
<path d="M30.1061 14.2854C29.2129 13.4307 28.0177 12.9292 26.7574 12.8801C25.4971 12.831 24.2635 13.238 23.3011 14.0205C21.9895 12.6816 21.0154 11.0719 20.4535 9.31521C20.7556 8.60278 21.1312 7.92117 21.5749 7.28061C21.6389 7.19797 21.6661 7.09431 21.6505 6.99244C21.6348 6.89057 21.5777 6.79883 21.4916 6.7374C21.4055 6.67597 21.2974 6.64989 21.1913 6.66489C21.0851 6.67989 20.9895 6.73474 20.9255 6.81738C20.8483 6.91677 19.7898 8.31555 18.8861 11.1253C18.6251 10.72 18.3282 10.3371 17.9986 9.98077C19.7745 7.19098 18.2314 5.05853 18.163 4.96691C18.113 4.89987 18.0421 4.84983 17.9605 4.82403C17.879 4.79822 17.7909 4.79799 17.7092 4.82337C17.4582 4.9136 17.2263 5.04655 17.0245 5.21582C16.754 4.68018 16.3657 4.20725 15.8862 3.82969C15.7999 3.76693 15.6913 3.73957 15.584 3.7536C15.5309 3.76075 15.4798 3.77797 15.4337 3.80425C15.3876 3.83053 15.3474 3.86534 15.3154 3.90667C15.1212 4.16399 14.971 4.44931 14.8702 4.75193C13.9881 4.40999 13.0134 4.35589 12.0961 4.59797C12.037 4.61706 11.9832 4.64902 11.9391 4.69136C11.895 4.7337 11.8617 4.78526 11.8418 4.842C11.5892 5.72224 11.6456 6.65781 12.0022 7.50423C11.6869 7.601 11.3896 7.74531 11.1215 7.93174C11.0784 7.96241 11.0422 8.00098 11.0148 8.04521C10.9874 8.08945 10.9695 8.13846 10.962 8.18941C10.9546 8.24035 10.9577 8.29221 10.9713 8.34197C10.9849 8.39173 11.0087 8.43841 11.0412 8.47927C11.4345 8.93953 11.9272 9.31227 12.4854 9.57168C12.3088 9.76529 12.1701 9.988 12.0762 10.229C12.0497 10.3075 12.05 10.3919 12.0768 10.4702C12.1037 10.5485 12.1559 10.6166 12.2258 10.6645C12.9433 11.1041 13.7788 11.3333 14.63 11.3241C15.6169 11.3089 16.5803 11.0325 17.414 10.5254C17.7727 10.9152 18.0884 11.3397 18.3558 11.792C17.1895 11.8834 14.7088 12.2845 12.7062 14.0309C11.7189 13.223 10.4443 12.813 9.14915 12.8866C7.854 12.9602 6.63874 13.5118 5.75776 14.4258C4.87678 15.3399 4.3984 16.5456 4.42276 17.7905C4.44712 19.0353 4.97234 20.2229 5.88846 21.1046C6.80457 21.9862 8.04056 22.4936 9.33768 22.5205C10.6348 22.5474 11.8925 22.0917 12.8474 21.2489C13.8023 20.406 14.3805 19.2413 14.4609 17.9986C14.5412 16.7559 14.1176 15.5315 13.2785 14.5818C15.1164 12.9997 17.4485 12.6399 18.4737 12.5614C17.8969 14.9142 17.6028 17.3226 17.5971 19.7396C16.3028 19.8399 15.0991 20.4168 14.238 21.3496C13.3769 22.2823 12.9252 23.4986 12.9775 24.7438C13.0298 25.9889 13.582 27.1664 14.5184 28.0297C15.4549 28.8929 16.7031 29.375 18.0017 29.375C19.3002 29.375 20.5484 28.8929 21.4849 28.0297C22.4214 27.1664 22.9736 25.9889 23.0258 24.7438C23.0781 23.4986 22.6264 22.2823 21.7653 21.3496C20.9042 20.4168 19.7005 19.8399 18.4062 19.7396C18.4504 15.591 19.2218 12.499 19.9939 10.4351C20.6231 11.9675 21.5511 13.3707 22.728 14.5696C22.0944 15.2833 21.6913 16.1589 21.568 17.089C21.4448 18.0192 21.6067 18.9637 22.034 19.8069C22.4614 20.6502 23.1355 21.3556 23.9741 21.8369C24.8126 22.3182 25.7791 22.5545 26.7554 22.5169C27.7317 22.4793 28.6753 22.1694 29.471 21.6252C30.2666 21.0809 30.8797 20.3259 31.2352 19.4525C31.5908 18.5791 31.6733 17.6252 31.4728 16.7075C31.2722 15.7898 30.7973 14.9481 30.1061 14.2854ZM14.9576 5.64311C15.0153 5.67199 15.0793 5.68711 15.1444 5.6872C15.2095 5.68729 15.2736 5.67234 15.3314 5.64362C15.3892 5.61489 15.4389 5.57324 15.4763 5.52218C15.5138 5.47112 15.5379 5.41215 15.5466 5.35027C15.5823 5.14627 15.6444 4.94735 15.7315 4.75814C16.0762 5.11148 16.328 5.53871 16.466 6.00429C16.4844 6.0727 16.5219 6.13499 16.5745 6.18445C16.6271 6.23391 16.6927 6.26866 16.7643 6.28496C16.836 6.30126 16.9109 6.29848 16.981 6.27694C17.0511 6.25539 17.1138 6.21589 17.1623 6.16269C17.317 5.99578 17.4892 5.84457 17.6762 5.71144C17.9677 6.29159 18.4263 7.6704 17.4154 9.39841L13.0735 5.22958C13.7285 5.20599 14.3784 5.34864 14.9576 5.64311ZM13.0025 10.1977C13.1413 10.0182 13.2989 9.85286 13.473 9.70434C13.5283 9.65779 13.5694 9.59763 13.5918 9.53035C13.6142 9.46306 13.617 9.39119 13.6 9.32246C13.583 9.25373 13.5468 9.19076 13.4953 9.1403C13.4438 9.08985 13.3789 9.05383 13.3077 9.03612C12.8228 8.90365 12.3779 8.66192 12.0101 8.33108C12.2068 8.24745 12.4137 8.18783 12.6259 8.1536C12.6907 8.1456 12.7524 8.1227 12.8059 8.08684C12.8594 8.05099 12.9031 8.00326 12.9332 7.9477C12.9633 7.89215 12.9789 7.83044 12.9788 7.76782C12.9787 7.7052 12.9628 7.64354 12.9325 7.58809C12.6274 7.03237 12.4798 6.40946 12.5046 5.78177L16.8444 9.94727C15.0429 10.9179 13.6052 10.4768 13.0025 10.1977ZM12.4274 20.5603C11.8375 21.1259 11.086 21.511 10.2681 21.6669C9.45017 21.8228 8.60244 21.7424 7.83208 21.436C7.06172 21.1296 6.40332 20.6109 5.9401 19.9454C5.47688 19.28 5.22964 18.4976 5.22964 17.6974C5.22964 16.8971 5.47688 16.1148 5.9401 15.4493C6.40332 14.7838 7.06172 14.2651 7.83208 13.9587C8.60244 13.6523 9.45017 13.572 10.2681 13.7278C11.086 13.8837 11.8375 14.2688 12.4274 14.8345C13.2173 15.5944 13.661 16.6239 13.661 17.6974C13.661 18.7708 13.2173 19.8004 12.4274 20.5603ZM22.2164 24.5485C22.2164 25.3493 21.969 26.1321 21.5054 26.7979C21.0418 27.4637 20.3829 27.9827 19.612 28.2891C18.8411 28.5955 17.9928 28.6757 17.1744 28.5195C16.356 28.3633 15.6043 27.9777 15.0143 27.4114C14.4242 26.8452 14.0224 26.1238 13.8596 25.3384C13.6969 24.553 13.7804 23.7389 14.0997 22.9991C14.419 22.2593 14.9598 21.6269 15.6536 21.182C16.3474 20.7371 17.1631 20.4997 17.9975 20.4997C19.116 20.5009 20.1884 20.9278 20.9794 21.6869C21.7703 22.4459 22.2152 23.475 22.2164 24.5485ZM29.5342 20.5603C28.9443 21.1259 28.1929 21.511 27.3749 21.6669C26.557 21.8228 25.7093 21.7424 24.9389 21.436C24.1686 21.1296 23.5102 20.6109 23.0469 19.9454C22.5837 19.28 22.3365 18.4976 22.3365 17.6974C22.3365 16.8971 22.5837 16.1148 23.0469 15.4493C23.5102 14.7838 24.1686 14.2651 24.9389 13.9587C25.7093 13.6523 26.557 13.572 27.3749 13.7278C28.1929 13.8837 28.9443 14.2688 29.5342 14.8345C30.3242 15.5944 30.7678 16.6239 30.7678 17.6974C30.7678 18.7708 30.3242 19.8004 29.5342 20.5603Z" fill="black"/>
</svg>
