<svg width="39" height="39" viewBox="0 0 39 39" fill="none" xmlns="http://www.w3.org/2000/svg">
<circle cx="19.4999" cy="19.5001" r="12.5357" fill="#F79A45" fill-opacity="0.8"/>
<path d="M34.7626 12.4148C34.4542 11.3165 33.1017 10.6978 31.2156 10.7342C32.1649 9.10666 32.2836 7.62356 31.4772 6.81707C30.6707 6.01059 29.1945 6.12969 27.5713 7.0736C27.6037 5.19655 26.9838 3.8498 25.8899 3.54154C25.6357 3.47756 25.3713 3.46515 25.1122 3.50504C24.8531 3.54493 24.6047 3.63632 24.3815 3.77382C23.2307 4.4162 22.167 6.04912 21.6054 8.03529C21.3353 9.04493 21.155 10.0765 21.0666 11.1179C13.4212 10.7918 3.99386 24.41 3.48906 31.4388C3.45931 31.8898 3.52621 32.342 3.68529 32.7651C3.84438 33.1882 4.09197 33.5724 4.4115 33.892C4.73104 34.2116 5.11513 34.4593 5.53809 34.6184C5.96104 34.7775 6.41308 34.8444 6.86397 34.8146C12.0719 34.4492 19.0332 29.8237 22.699 26.0677C23.1486 25.6066 23.5828 25.1262 23.9893 24.6396C26.1712 22.0223 27.2645 19.4778 27.1764 17.2446C28.221 17.1551 29.2556 16.9736 30.2682 16.7024C32.2529 16.1409 33.8848 15.077 34.5275 13.927C34.6657 13.7034 34.7577 13.4544 34.7981 13.1947C34.8385 12.935 34.8264 12.6698 34.7626 12.4148ZM30.8105 7.48371C31.3761 8.04957 30.999 9.52432 29.9186 10.9931C28.9807 12.2682 27.5713 13.3851 26.2423 14.2441C25.673 13.3692 24.927 12.6231 24.0523 12.0537C24.6057 11.192 25.2305 10.3783 25.9201 9.62132C27.6777 7.72919 30.0212 6.6942 30.8105 7.48371ZM22.514 8.29209C23.0029 6.56567 23.9168 5.11437 24.8426 4.59728C24.9581 4.52104 25.0876 4.46866 25.2235 4.4432C25.3595 4.41775 25.4991 4.41975 25.6343 4.44908C26.3716 4.65683 26.7632 6.02271 26.5906 7.73296C26.0636 8.13961 25.575 8.59365 25.1309 9.08941C24.4258 9.87524 23.7862 10.7174 23.2183 11.6075C22.8285 11.4374 22.4215 11.31 22.0043 11.2273C22.0869 10.2356 22.2576 9.25321 22.5145 8.29182L22.514 8.29209ZM16.8917 13.2062L19.7424 16.0606C19.8309 16.149 19.8806 16.269 19.8806 16.3941C19.8806 16.5191 19.831 16.6391 19.7426 16.7276C19.6542 16.8161 19.5342 16.8658 19.4092 16.8658C19.2841 16.8658 19.1642 16.8162 19.0757 16.7277L16.0567 13.7063C16.3386 13.5242 16.617 13.3574 16.8917 13.2062ZM10.7052 18.6611L13.9241 21.8808C14.0103 21.9698 14.0581 22.0891 14.0572 22.2129C14.0562 22.3368 14.0066 22.4554 13.919 22.543C13.8315 22.6306 13.713 22.6802 13.5891 22.6812C13.4653 22.6821 13.346 22.6343 13.2571 22.548L10.1125 19.4024C10.3112 19.1467 10.5087 18.8997 10.7052 18.6611ZM8.10414 28.3667C8.01501 28.4533 7.89569 28.5017 7.77147 28.5017C7.64725 28.5017 7.52793 28.4533 7.4388 28.3667L5.76037 26.6874C5.88509 26.3945 6.0222 26.0895 6.17385 25.768L8.10549 27.7022C8.14943 27.7457 8.18428 27.7975 8.20803 27.8546C8.23178 27.9117 8.24395 27.9729 8.24382 28.0347C8.2437 28.0966 8.23128 28.1578 8.2073 28.2148C8.18332 28.2717 8.14825 28.3234 8.10414 28.3667ZM15.922 30.268L13.3953 27.7432C13.3515 27.6994 13.3168 27.6474 13.2931 27.5902C13.2694 27.533 13.2572 27.4716 13.2572 27.4097C13.2571 27.3477 13.2693 27.2864 13.293 27.2292C13.3167 27.1719 13.3514 27.1199 13.3952 27.0761C13.439 27.0323 13.4909 26.9976 13.5481 26.9739C13.6053 26.9501 13.6667 26.9379 13.7286 26.9379C13.7905 26.9379 13.8518 26.9501 13.909 26.9738C13.9662 26.9975 14.0182 27.0322 14.062 27.076L16.7301 29.7463C16.465 29.9225 16.1943 30.0969 15.922 30.268ZM22.3553 25.0634L19.2145 21.9215C19.1703 21.8781 19.1353 21.8262 19.1114 21.7691C19.0874 21.7119 19.0751 21.6506 19.0751 21.5886C19.0751 21.5267 19.0874 21.4653 19.1114 21.4082C19.1353 21.351 19.1703 21.2992 19.2145 21.2557C19.3038 21.1688 19.4235 21.1202 19.5481 21.1202C19.6727 21.1202 19.7923 21.1688 19.8817 21.2557L22.9875 24.3623C22.7824 24.5989 22.5717 24.8326 22.3553 25.0634ZM23.5925 23.6334L20.5486 20.5885C20.2828 20.3259 19.9238 20.1792 19.5501 20.1805C19.1764 20.1817 18.8185 20.3309 18.5544 20.5954C18.2903 20.8599 18.1416 21.2182 18.1408 21.5919C18.14 21.9657 18.2871 22.3247 18.5499 22.5903L21.697 25.7387C20.4025 27.0065 19.0061 28.1658 17.5218 29.2047L14.7282 26.4094C14.4629 26.144 14.1032 25.995 13.7281 25.995C13.353 25.995 12.9933 26.144 12.7281 26.4094C12.4629 26.6747 12.3139 27.0345 12.3139 27.4097C12.3139 27.7849 12.4629 28.1448 12.7281 28.4101L15.0915 30.7719C11.9957 32.595 8.99736 33.7195 6.79798 33.8739C6.4817 33.8943 6.1647 33.8471 5.86812 33.7353C5.57153 33.6235 5.30219 33.4498 5.07804 33.2256C4.8539 33.0015 4.6801 32.7321 4.56826 32.4355C4.45641 32.1388 4.40908 31.8217 4.42943 31.5053C4.56408 30.178 4.88359 28.8761 5.37868 27.6373L6.77104 29.0301C7.03664 29.2912 7.39452 29.4369 7.76692 29.4356C8.13931 29.4342 8.49612 29.2859 8.7598 29.0228C9.02348 28.7598 9.17272 28.4032 9.17509 28.0307C9.17746 27.6582 9.03276 27.2998 8.77244 27.0334L6.63528 24.8942L6.61373 24.8726C7.46311 23.2278 8.44089 21.6526 9.53798 20.1617L12.5907 23.2149C12.8565 23.4786 13.2157 23.6266 13.5901 23.6266C13.9644 23.6266 14.3236 23.4786 14.5894 23.2149C14.8544 22.9495 15.0032 22.5898 15.0032 22.2147C15.0032 21.8396 14.8544 21.4799 14.5894 21.2145L11.3177 17.94C12.4942 16.5686 13.8178 15.3306 15.2647 14.2485L18.4088 17.3944C18.6741 17.6596 19.0338 17.8085 19.4088 17.8085C19.7839 17.8085 20.1436 17.6596 20.4088 17.3944H20.4102C20.6718 17.1274 20.8183 16.7685 20.8183 16.3947C20.8183 16.0209 20.6718 15.662 20.4102 15.395L17.7806 12.7632C20.2499 11.6668 22.6023 11.7452 24.5533 13.6597C25.4615 14.5025 26.0456 15.6372 26.2037 16.8662C26.4416 18.8435 25.5384 21.1757 23.5925 23.6334ZM33.7062 13.4638C33.189 14.3899 31.7398 15.3039 30.0142 15.7922C29.0503 16.0496 28.0654 16.2209 27.0711 16.3041C26.9878 15.8836 26.8592 15.4734 26.6875 15.0805C28.0702 14.1962 29.5466 13.0257 30.553 11.7196C32.2739 11.5412 33.6474 11.9311 33.8554 12.6721C33.8842 12.8074 33.8859 12.947 33.8603 13.0829C33.8346 13.2189 33.7823 13.3483 33.7062 13.4638Z" fill="black"/>
</svg>
