<?xml version="1.0" encoding="iso-8859-1"?>
<!-- Uploaded to: SVG Repo, www.svgrepo.com, Generator: SVG Repo Mixer Tools -->
<svg fill="#000000" height="800px" width="800px" version="1.1" id="Capa_1" xmlns="http://www.w3.org/2000/svg" xmlns:xlink="http://www.w3.org/1999/xlink" 
	 viewBox="0 0 463.001 463.001" xml:space="preserve">
<g>
	<path d="M363.236,48.001H103.5c-4.142,0-7.5,3.358-7.5,7.5s3.358,7.5,7.5,7.5h259.735c4.142,0,7.5-3.358,7.5-7.5
		S367.378,48.001,363.236,48.001z"/>
	<path d="M363.236,400.001H103.5c-4.142,0-7.5,3.358-7.5,7.5s3.358,7.5,7.5,7.5h259.735c4.142,0,7.5-3.358,7.5-7.5
		S367.378,400.001,363.236,400.001z"/>
	<path d="M394.967,0.85c-2.478-1.293-5.47-1.099-7.762,0.502l-18.611,13l-18.611-13c-2.583-1.805-6.016-1.802-8.594,0.003
		L322.82,14.347L304.256,1.356c-2.582-1.808-6.019-1.807-8.601,0l-18.557,12.988L258.565,1.359c-2.582-1.81-6.02-1.811-8.604-0.002
		l-18.56,12.99L212.84,1.356c-2.582-1.808-6.019-1.808-8.602,0.001l-18.548,12.987L167.152,1.358
		c-2.583-1.81-6.021-1.81-8.604-0.001l-18.551,12.987L121.468,1.359c-2.583-1.81-6.022-1.811-8.606-0.001L94.321,14.342L75.807,1.36
		c-2.292-1.607-5.286-1.805-7.767-0.513C65.558,2.138,64,4.703,64,7.501v448c0,2.795,1.555,5.358,4.033,6.65
		c2.478,1.293,5.47,1.099,7.762-0.502l18.611-13l18.611,13c2.582,1.804,6.015,1.801,8.594-0.003l18.569-12.992l18.563,12.991
		c2.582,1.808,6.019,1.807,8.601,0l18.557-12.988l18.533,12.986c2.582,1.81,6.02,1.811,8.604,0.002l18.56-12.99l18.561,12.99
		c2.582,1.808,6.019,1.808,8.602-0.001l18.548-12.987l18.537,12.986c2.583,1.81,6.021,1.81,8.604,0.001l18.551-12.987l18.529,12.985
		c2.583,1.81,6.022,1.812,8.606,0.001l18.541-12.985l18.514,12.982c1.286,0.902,2.793,1.359,4.307,1.359
		c1.184,0,2.372-0.28,3.46-0.846c2.482-1.291,4.039-3.856,4.039-6.654v-448C399,4.705,397.446,2.142,394.967,0.85z M384,441.082
		l-11.012-7.722c-2.584-1.812-6.024-1.813-8.608-0.002l-18.542,12.986l-18.529-12.985c-2.582-1.809-6.021-1.81-8.605-0.002
		l-18.551,12.988l-18.538-12.986c-2.582-1.809-6.021-1.81-8.605-0.001l-18.55,12.988l-18.56-12.989
		c-2.582-1.807-6.018-1.808-8.601,0l-18.558,12.988l-18.533-12.986c-2.583-1.81-6.022-1.811-8.604-0.002l-18.56,12.99l-18.563-12.99
		c-2.582-1.808-6.019-1.807-8.6-0.001l-18.573,12.995l-18.608-12.998c-1.29-0.901-2.792-1.352-4.295-1.352s-3.005,0.451-4.295,1.352
		L79,441.113V21.92l11.012,7.722c2.584,1.812,6.024,1.813,8.608,0.002l18.542-12.986l18.529,12.985
		c2.583,1.81,6.023,1.811,8.605,0.002l18.551-12.988l18.538,12.986c2.582,1.809,6.021,1.81,8.605,0.001l18.55-12.988l18.56,12.989
		c2.582,1.808,6.018,1.808,8.601,0l18.558-12.988l18.533,12.986c2.583,1.81,6.021,1.811,8.604,0.002l18.56-12.99l18.563,12.99
		c2.582,1.808,6.019,1.807,8.6,0.001l18.573-12.995L364.3,29.649c2.58,1.802,6.01,1.802,8.59,0L384,21.888V441.082z"/>
	<path d="M197.246,265.712c-14.455-14.455-35.237-20.734-54.238-16.385c-2.806,0.642-4.996,2.833-5.638,5.638
		c-4.348,19,1.931,39.783,16.386,54.238c11.425,11.425,26.8,17.742,42.127,17.742c2.631,0,5.26-0.207,7.869-0.586L224,346.607
		v12.894c0,4.142,3.358,7.5,7.5,7.5s7.5-3.358,7.5-7.5v-12.894l20.248-20.248c2.609,0.379,5.237,0.586,7.869,0.586
		c15.326,0,30.704-6.317,42.127-17.742c14.455-14.455,20.734-35.237,16.386-54.238c-0.642-2.806-2.833-4.996-5.638-5.638
		c-19.001-4.349-39.784,1.931-54.238,16.385c-13.408,13.408-19.775,32.26-17.157,50.085L239,325.394v-55.628
		c9.29-3.138,16-11.93,16-22.266c0-4.075-1.27-16.309-3.466-29.3c10.15,8.395,20.107,15.611,23.642,17.652
		c3.622,2.091,7.64,3.159,11.712,3.159c2.041,0,4.096-0.269,6.121-0.811c6.063-1.625,11.131-5.513,14.27-10.95
		c6.479-11.221,2.62-25.622-8.602-32.101c-3.53-2.038-14.76-7.055-27.109-11.648c12.349-4.594,23.579-9.611,27.109-11.648
		c11.221-6.479,15.08-20.88,8.601-32.102c-3.139-5.436-8.206-9.325-14.27-10.949c-6.063-1.625-12.396-0.792-17.832,2.348
		c-3.535,2.041-13.492,9.256-23.642,17.651c2.196-12.988,3.466-25.218,3.466-29.3c0-12.958-10.542-23.5-23.5-23.5
		s-23.5,10.542-23.5,23.5c0,4.075,1.27,16.309,3.466,29.3c-10.15-8.395-20.107-15.61-23.642-17.652
		c-5.437-3.139-11.769-3.973-17.833-2.348c-6.063,1.625-11.131,5.513-14.27,10.95c-6.479,11.221-2.62,25.622,8.602,32.101
		c3.53,2.038,14.76,7.055,27.109,11.648c-12.349,4.594-23.579,9.611-27.109,11.648c-11.221,6.479-15.08,20.88-8.601,32.102
		c3.139,5.436,8.206,9.325,14.27,10.949c2.024,0.542,4.079,0.811,6.121,0.811c4.072,0,8.091-1.068,11.711-3.159
		c3.535-2.041,13.492-9.256,23.642-17.651c-2.196,12.988-3.466,25.218-3.466,29.3c0,10.336,6.71,19.128,16,22.266v55.628
		l-9.597-9.597C217.021,297.972,210.654,279.12,197.246,265.712z M164.362,298.596c-9.599-9.599-14.415-22.807-13.161-35.438
		c12.632-1.25,25.84,3.562,35.438,13.16c6.828,6.828,11.22,15.485,12.745,24.459l-18.602-18.602c-2.929-2.929-7.678-2.929-10.606,0
		c-2.929,2.929-2.929,7.678,0,10.606l18.543,18.543C179.781,309.784,171.164,305.398,164.362,298.596z M276.362,276.318
		c9.599-9.599,22.81-14.411,35.438-13.16c1.254,12.631-3.562,25.839-13.161,35.438c-6.802,6.801-15.419,11.186-24.355,12.727
		l18.541-18.541c2.929-2.929,2.929-7.678,0-10.606c-2.929-2.929-7.678-2.929-10.606,0l-18.602,18.602
		C265.141,291.803,269.533,283.147,276.362,276.318z M223,183.501c0-4.687,3.813-8.5,8.5-8.5s8.5,3.813,8.5,8.5s-3.813,8.5-8.5,8.5
		S223,188.188,223,183.501z M294.288,219.751c-1.135,1.966-2.968,3.373-5.162,3.96c-2.193,0.588-4.483,0.287-6.45-0.849
		c-3.839-2.216-20.103-14.256-32.221-25.492c0.997-1.359,1.85-2.829,2.54-4.387c15.788,4.877,34.35,12.945,38.181,15.156
		C295.235,210.483,296.631,215.692,294.288,219.751z M282.677,144.139c1.966-1.136,4.258-1.437,6.449-0.849
		c2.193,0.587,4.026,1.994,5.162,3.96c2.343,4.059,0.947,9.268-3.111,11.612c-3.831,2.212-22.393,10.279-38.181,15.156
		c-0.69-1.558-1.543-3.028-2.54-4.387C262.573,158.395,278.838,146.356,282.677,144.139z M231.5,111.001c4.687,0,8.5,3.813,8.5,8.5
		c0,4.431-2.293,24.529-5.963,40.639c-0.834-0.09-1.679-0.139-2.537-0.139c-0.857,0-1.703,0.049-2.536,0.139
		c-3.67-16.112-5.964-36.216-5.964-40.639C223,114.814,226.813,111.001,231.5,111.001z M168.713,147.251
		c1.135-1.966,2.968-3.373,5.162-3.96c2.195-0.587,4.484-0.286,6.45,0.849c3.839,2.216,20.103,14.256,32.221,25.492
		c-0.997,1.359-1.85,2.829-2.54,4.387c-15.788-4.877-34.35-12.945-38.181-15.156C167.766,156.518,166.37,151.309,168.713,147.251z
		 M180.324,222.862c-1.966,1.136-4.256,1.437-6.449,0.849c-2.193-0.587-4.026-1.994-5.162-3.96
		c-2.343-4.059-0.947-9.268,3.111-11.612c3.831-2.212,22.393-10.279,38.181-15.156c0.69,1.558,1.543,3.028,2.54,4.387
		C200.428,208.606,184.163,220.646,180.324,222.862z M228.964,206.862c0.834,0.09,1.679,0.139,2.537,0.139
		c0.857,0,1.703-0.049,2.536-0.139c3.67,16.112,5.964,36.216,5.964,40.639c0,4.687-3.813,8.5-8.5,8.5s-8.5-3.813-8.5-8.5
		C223,243.069,225.294,222.972,228.964,206.862z"/>
</g>
</svg>