<svg width="28" height="28" viewBox="0 0 28 28" fill="none" xmlns="http://www.w3.org/2000/svg">
<circle cx="13" cy="14" r="9" fill="#C50000" fill-opacity="0.7"/>
<path d="M22.9755 10.2207C22.5859 9.75933 22.1052 9.38355 21.5633 9.11701C21.0215 8.85047 20.4304 8.69895 19.8272 8.67197L18.7851 8.61881C18.6858 8.61465 18.5919 8.614 18.5007 8.61509C17.7087 7.67946 16.6058 7.06091 15.3945 6.87297C15.832 2.94968 14.2447 1.37447 14.1747 1.30731C14.121 1.25566 14.0533 1.22086 13.9801 1.20718C13.9068 1.1935 13.8311 1.20154 13.7624 1.23031L11.3758 2.22562C11.3203 2.24876 11.2711 2.28463 11.2321 2.33034C11.1931 2.37604 11.1653 2.43029 11.1512 2.48869C11.137 2.54709 11.1368 2.60801 11.1506 2.66651C11.1643 2.72501 11.1916 2.77946 11.2303 2.82543C12.1664 3.93712 12.6807 5.67115 12.9366 6.8314C11.6 6.94721 10.364 7.58873 9.50003 8.61509C9.4075 8.61378 9.31278 8.61509 9.2115 8.61903L8.17309 8.67153C7.57012 8.70091 6.97957 8.85349 6.43783 9.11985C5.89609 9.38621 5.41465 9.76071 5.02318 10.2203C4.63172 10.6798 4.33853 11.2147 4.16169 11.7919C3.98485 12.3691 3.92811 12.9764 3.99497 13.5763L4.92465 21.9151C5.04641 22.9946 5.56087 23.9917 6.37011 24.7164C7.17936 25.4412 8.22686 25.8431 9.31322 25.8456C9.38606 25.8456 9.45912 25.8441 9.53197 25.8403C9.9413 25.8198 10.3457 25.7418 10.7333 25.6087C11.6476 26.3774 12.8037 26.7989 13.9982 26.7989C15.1926 26.7989 16.3488 26.3774 17.263 25.6087C17.6504 25.7417 18.0546 25.8197 18.4637 25.8403C18.537 25.8441 18.6101 25.8456 18.6825 25.8456C19.7689 25.8432 20.8165 25.4414 21.6259 24.7166C22.4352 23.9918 22.9497 22.9947 23.0715 21.9151L24.0012 13.5763C24.0709 12.9765 24.0158 12.3687 23.8392 11.7913C23.6627 11.2138 23.3686 10.6791 22.9755 10.2207ZM13.7947 2.04668C14.1447 2.5345 14.9491 3.99947 14.6315 6.80975H13.7156C13.4482 5.541 12.9692 3.94522 12.129 2.741L13.7947 2.04668ZM9.49675 25.0758C8.56855 25.1196 7.65844 24.8087 6.95102 24.2062C6.24361 23.6037 5.79187 22.7547 5.68743 21.8313L4.75775 13.4926C4.70242 12.9965 4.74929 12.4944 4.89546 12.0172C5.04163 11.54 5.284 11.0978 5.60763 10.7178C5.93126 10.3379 6.32928 10.0283 6.77717 9.80803C7.22505 9.58781 7.7133 9.46166 8.21181 9.43737L8.95075 9.39997C8.93434 9.42906 8.92056 9.45946 8.90459 9.489C8.88162 9.53143 8.85975 9.57387 8.83897 9.61697C8.79522 9.70447 8.75365 9.79197 8.71472 9.88275C8.69678 9.92387 8.67818 9.96456 8.66156 10.0061C8.61387 10.1241 8.57071 10.2437 8.53206 10.3649C8.52812 10.3771 8.52309 10.3892 8.51937 10.4014C8.47803 10.5348 8.44325 10.6705 8.41306 10.8072C8.40409 10.8483 8.39731 10.8899 8.38922 10.9312C8.36997 11.0291 8.35349 11.1275 8.33978 11.2265C8.33343 11.2749 8.32775 11.323 8.3225 11.3716C8.31229 11.47 8.305 11.5688 8.30062 11.668C8.29843 11.7117 8.29537 11.7555 8.2945 11.7992C8.29143 11.941 8.29253 12.0836 8.30128 12.2258L8.90962 22.0127C8.91903 22.1658 8.93697 22.3189 8.95972 22.4685C8.96715 22.5169 8.97765 22.5643 8.9864 22.6122C9.00478 22.7146 9.02512 22.8161 9.04984 22.9163C9.06318 22.9708 9.07828 23.0257 9.09359 23.0786C9.11984 23.1722 9.14901 23.2649 9.18109 23.3564C9.19925 23.4096 9.21762 23.4623 9.23753 23.5146C9.27362 23.6095 9.31365 23.7027 9.35543 23.795C9.37578 23.8403 9.39459 23.8858 9.41625 23.9302C9.47575 24.0523 9.53999 24.1717 9.60896 24.2885C9.6164 24.301 9.62253 24.3141 9.63084 24.3266C9.7085 24.4552 9.79293 24.5801 9.88197 24.7022C9.90909 24.7392 9.93884 24.7742 9.96684 24.8116C10.0145 24.8732 10.0605 24.936 10.111 24.9957C9.9089 25.0399 9.7034 25.0666 9.49675 25.0758ZM11.0717 24.8938C10.2421 24.1367 9.7399 23.0863 9.67175 21.9652L9.0634 12.1783C9.04689 11.9149 9.05421 11.6505 9.08528 11.3884C9.21339 10.3365 9.72217 9.36783 10.5156 8.66534C11.309 7.96286 12.3321 7.57514 13.3918 7.57537H14.6081C14.7264 7.57537 14.8321 7.57975 14.9386 7.58959C16.0741 7.67566 17.1301 8.20536 17.8781 9.06408C18.6261 9.92279 19.0059 11.0415 18.9354 12.1781L18.3275 21.965C18.3187 22.1057 18.3034 22.2449 18.2815 22.3826C18.158 23.1558 17.8274 23.8811 17.3248 24.4814C16.8221 25.0818 16.1663 25.5348 15.4268 25.7924C14.6874 26.0499 13.892 26.1024 13.1252 25.9442C12.3583 25.7859 11.6489 25.423 11.0717 24.8938ZM23.2426 13.4917L22.3124 21.8313C22.2553 22.3406 22.0917 22.8322 21.8323 23.2742C21.5729 23.7163 21.2235 24.0988 20.8067 24.3971C20.3899 24.6953 19.9151 24.9026 19.413 25.0055C18.911 25.1085 18.3929 25.1047 17.8924 24.9944C17.9427 24.9352 17.9882 24.8726 18.0357 24.8113C18.0641 24.7746 18.0943 24.7389 18.1216 24.702C18.2107 24.5803 18.2949 24.4557 18.3723 24.3272C18.3808 24.3135 18.3876 24.2986 18.3959 24.2846C18.4639 24.1691 18.5273 24.0513 18.586 23.9311C18.6079 23.8873 18.6269 23.8401 18.6475 23.7946C18.6891 23.7025 18.7289 23.6097 18.765 23.5152C18.7849 23.463 18.8032 23.41 18.8214 23.3569C18.8529 23.2653 18.8821 23.1726 18.9089 23.0788C18.924 23.025 18.9391 22.9714 18.9527 22.917C18.9774 22.8163 18.9977 22.7146 19.0163 22.6122C19.0248 22.5643 19.0353 22.5173 19.0426 22.4692C19.0655 22.3187 19.0835 22.1669 19.0929 22.0131L19.701 12.2262C19.7097 12.0836 19.7108 11.9418 19.7078 11.7997C19.7078 11.7559 19.7038 11.7122 19.7017 11.6684C19.6971 11.5691 19.6901 11.4704 19.6798 11.372C19.6745 11.3232 19.6688 11.2749 19.6625 11.2265C19.6492 11.1279 19.6323 11.0297 19.6133 10.9325C19.6052 10.8905 19.5982 10.8485 19.589 10.807C19.5588 10.6707 19.5234 10.5355 19.4833 10.4025C19.4787 10.3881 19.4731 10.3743 19.4685 10.3587C19.4304 10.2397 19.388 10.1224 19.3414 10.0066C19.3241 9.96281 19.3048 9.92168 19.2862 9.87903C19.2482 9.79153 19.2076 9.70476 19.1646 9.61872C19.1427 9.57497 19.1196 9.53121 19.0957 9.48746C19.0802 9.45859 19.0666 9.42862 19.0504 9.39997L19.7902 9.43737C20.2887 9.46181 20.7768 9.58806 21.2246 9.80834C21.6724 10.0286 22.0703 10.3383 22.3938 10.7182C22.7174 11.0981 22.9597 11.5403 23.1059 12.0174C23.252 12.4946 23.2989 12.9966 23.2437 13.4926L23.2426 13.4917Z" fill="black"/>
</svg>
