<svg width="39" height="39" viewBox="0 0 39 39" fill="none" xmlns="http://www.w3.org/2000/svg">
<ellipse cx="19.4999" cy="22.579" rx="12.5357" ry="12.3158" fill="#E4D445" fill-opacity="0.85"/>
<path d="M30.5995 8.09891C28.4342 7.62616 26.1917 7.63334 24.0295 8.11993C24.9705 7.18542 26.0916 6.45183 27.3247 5.96366C27.4403 5.9246 27.5391 5.84706 27.6044 5.74397C27.6697 5.64089 27.6978 5.51851 27.6837 5.39726C27.6697 5.27602 27.6145 5.16325 27.5274 5.0778C27.4403 4.99234 27.3264 4.93936 27.2049 4.92772C25.2622 4.69882 23.2944 5.02736 21.5314 5.87499C21.3549 4.3988 20.7979 2.99379 19.915 1.79766C19.8632 1.73852 19.7994 1.69112 19.7278 1.65865C19.6562 1.62617 19.5785 1.60937 19.4998 1.60938C19.4212 1.60937 19.3435 1.62617 19.2719 1.65865C19.2003 1.69112 19.1365 1.73852 19.0847 1.79766C18.2028 2.99339 17.6464 4.39759 17.4699 5.87286C15.7073 5.02359 13.7386 4.69588 11.796 4.92833C11.6752 4.94065 11.5622 4.99385 11.4757 5.07914C11.3892 5.16442 11.3344 5.27667 11.3204 5.39731C11.3064 5.51796 11.334 5.63977 11.3987 5.74259C11.4633 5.84541 11.5611 5.92307 11.6759 5.96274C12.9262 6.45688 14.0611 7.2037 15.0095 8.15649C12.8361 7.66719 10.5834 7.64745 8.40176 8.0986C8.28013 8.12934 8.17324 8.20198 8.09988 8.30375C8.02652 8.40551 7.99139 8.52988 8.00067 8.65499C8.00995 8.7801 8.06304 8.89793 8.15061 8.98775C8.23818 9.07758 8.35462 9.13366 8.47945 9.14612C8.52455 9.15038 12.8231 9.62783 14.9111 13.0815C13.2882 13.923 11.9275 15.1937 10.9771 16.7554C10.0268 18.317 9.52326 20.1095 9.52149 21.9375V27.4219C9.52149 30.0684 10.5728 32.6064 12.4441 34.4778C14.3155 36.3491 16.8535 37.4004 19.5 37.4004C22.1465 37.4004 24.6845 36.3491 26.5559 34.4778C28.4272 32.6064 29.4785 30.0684 29.4785 27.4219V21.9375C29.4768 20.1096 28.9735 18.3173 28.0233 16.7558C27.0732 15.1942 25.7127 13.9234 24.0901 13.0818C26.1778 9.62844 30.4767 9.1513 30.5212 9.14642C30.646 9.13406 30.7625 9.07807 30.8502 8.98828C30.9378 8.8985 30.991 8.78068 31.0004 8.65556C31.0097 8.53043 30.9746 8.40602 30.9013 8.3042C30.828 8.20239 30.7211 8.12969 30.5995 8.09891ZM22.1788 8.71011C21.216 9.10263 20.3133 9.62904 19.4976 10.2738C19.23 10.0635 18.9574 9.87127 18.6813 9.69334C19.4 8.65971 20.3334 7.79347 21.4177 7.15387C22.502 6.51426 23.7117 6.11638 24.964 5.98742C23.8611 6.6974 22.9136 7.62362 22.1788 8.71011ZM23.5076 13.9812L19.5 16.4373L15.4928 13.9809C16.7352 13.3527 18.1079 13.0254 19.5002 13.0254C20.8924 13.0254 22.2651 13.353 23.5076 13.9812ZM19.5 3.10294C20.0933 4.12759 20.4378 5.27727 20.5055 6.45938C20.2343 6.63641 19.9848 6.81648 19.7629 6.99319C19.6715 7.06571 19.5847 7.13884 19.4994 7.21166C19.1807 6.9388 18.8448 6.68661 18.4939 6.45664C18.5623 5.27543 18.9069 4.12674 19.5 3.10294ZM14.0336 5.98559C15.759 6.1548 17.3934 6.8402 18.7234 7.95235C18.3676 8.32768 18.0433 8.73164 17.7538 9.16013C17.4507 9.00444 17.1445 8.86276 16.8398 8.73814C16.1023 7.6385 15.1473 6.7017 14.0336 5.98559ZM11.3761 8.83595C13.7368 8.80091 17.1758 9.30151 19.7794 11.9657C19.6865 11.9633 19.5938 11.9587 19.5 11.9587C18.2647 11.9582 17.0402 12.1884 15.8895 12.6375C14.8463 10.9065 13.2592 9.56973 11.3761 8.83595ZM14.4553 14.5945L18.4796 17.0625L13.2859 20.2456L11.1162 18.9159C11.7525 17.1635 12.9198 15.6534 14.4553 14.5961V14.5945ZM28.4121 23.1502V26.2092L25.7156 27.8631L20.5204 24.6797L25.7156 21.4963L28.4121 23.1502ZM26.7342 20.8711L28.1924 19.9775C28.3347 20.6081 28.408 21.2523 28.4112 21.8988L26.7342 20.8711ZM28.41 27.4606C28.4068 28.1071 28.3334 28.7513 28.1912 29.3819L26.7342 28.4883L28.41 27.4606ZM10.5879 26.2092V23.1502L13.2859 21.4966L18.4796 24.6797L13.2859 27.8628L10.5879 26.2092ZM12.2655 28.4883L10.8076 29.3816C10.6653 28.7511 10.592 28.107 10.5888 27.4606L12.2655 28.4883ZM10.5897 21.8988C10.5929 21.2524 10.6662 20.6083 10.8085 19.9778L12.2655 20.8711L10.5897 21.8988ZM19.5 25.3052L24.6937 28.4883L19.5 31.6714L14.3063 28.4883L19.5 25.3052ZM19.5 24.0542L14.3063 20.8711L19.5 17.688L24.6937 20.8711L19.5 24.0542ZM11.1162 30.4435L13.2859 29.1138L18.4796 32.2969L14.4553 34.7649C12.9195 33.7072 11.7522 32.1964 11.1162 30.4435ZM15.4928 35.3794L19.5 32.9224L23.5076 35.3785C22.2651 36.0067 20.8924 36.334 19.5002 36.334C18.1079 36.334 16.7352 36.0067 15.4928 35.3785V35.3794ZM24.5447 34.7649L20.5204 32.2969L25.7156 29.1135L27.8853 30.4435C27.2489 32.1966 26.0811 33.7074 24.5447 34.7649ZM27.8838 18.9159L25.7156 20.2459L20.5204 17.0625L24.5447 14.5961C26.0802 15.6534 27.2475 17.1635 27.8838 18.9159ZM23.1105 12.6378C22.5385 12.4148 21.9468 12.2456 21.3434 12.1324C21.0268 11.7277 20.6825 11.3455 20.3129 10.9886C22.7257 9.16044 25.5803 8.79664 27.6309 8.83351C25.7449 9.56689 24.1552 10.9048 23.1105 12.6378Z" fill="black"/>
</svg>
