<svg width="39" height="39" viewBox="0 0 39 39" fill="none" xmlns="http://www.w3.org/2000/svg">
<ellipse cx="19.8421" cy="19.5001" rx="12.3158" ry="12.5357" fill="#A5876B"/>
<path d="M26.0368 26.0411C26.1145 26.3568 26.1536 26.6805 26.1533 27.0052C26.152 28.0788 25.7164 29.108 24.9421 29.8671C24.1678 30.6262 23.1179 31.0533 22.0228 31.0545C21.9114 31.0545 21.8045 31.0979 21.7257 31.1752C21.6469 31.2524 21.6026 31.3572 21.6026 31.4665C21.6026 31.5758 21.6469 31.6806 21.7257 31.7578C21.8045 31.8351 21.9114 31.8785 22.0228 31.8785C22.8777 31.8793 23.7184 31.6639 24.4635 31.2531C25.2086 30.8422 25.833 30.2499 26.2763 29.5332C26.7196 28.8166 26.9668 28 26.994 27.1623C27.0212 26.3247 26.8275 25.4943 26.4316 24.7515C26.3799 24.6547 26.291 24.582 26.1846 24.5495C26.0782 24.5169 25.963 24.5271 25.8643 24.5779C25.7656 24.6286 25.6914 24.7157 25.6582 24.82C25.625 24.9243 25.6354 25.0373 25.6872 25.134C25.8403 25.4216 25.9577 25.7262 26.0368 26.0411Z" fill="black"/>
<path d="M33.4117 14.9718C32.7545 12.6818 31.0343 9.5243 26.5761 7.48529C24.4435 6.50705 22.1177 6 19.7632 6C17.4087 6 15.083 6.50705 12.9504 7.48529C8.49145 9.52477 6.77155 12.6818 6.11476 14.972C5.98162 15.4331 5.96404 15.9189 6.06351 16.3881C6.16298 16.8573 6.37656 17.296 6.68609 17.667C6.99561 18.0379 7.39193 18.33 7.84133 18.5186C8.29074 18.7071 8.77994 18.7865 9.26735 18.7499C10.8704 18.621 12.4796 18.5805 14.0872 18.6286C13.4389 20.4539 12.278 22.7269 11.6056 23.9864C11.0768 24.9806 10.8183 26.0916 10.8551 27.2122C10.8918 28.3328 11.2225 29.4252 11.8153 30.384C12.408 31.3428 13.2429 32.1357 14.2392 32.6861C15.2356 33.2365 16.3598 33.5259 17.5035 33.5263H22.023C23.1666 33.5259 24.2909 33.2366 25.2872 32.6862C26.2836 32.1358 27.1184 31.343 27.7112 30.3842C28.304 29.4254 28.6348 28.333 28.6715 27.2124C28.7083 26.0918 28.4498 24.9808 27.9211 23.9867C27.2487 22.7269 26.0874 20.4537 25.4392 18.6284C27.0469 18.5802 28.6561 18.6208 30.2591 18.7499C30.7465 18.7864 31.2358 18.7071 31.6851 18.5185C32.1345 18.3299 32.5308 18.0377 32.8404 17.6668C33.1499 17.2959 33.3634 16.8571 33.4628 16.3879C33.5623 15.9187 33.5449 15.4329 33.4117 14.9718ZM27.8344 27.005C27.8327 28.5155 27.2199 29.9637 26.1304 31.0318C25.0409 32.0999 23.5637 32.7006 22.023 32.7023H17.5035C16.5044 32.702 15.5222 32.4492 14.6517 31.9684C13.7813 31.4876 13.0519 30.795 12.534 29.9574C12.016 29.1198 11.727 28.1654 11.6949 27.1864C11.6627 26.2074 11.8884 25.2369 12.3503 24.3683C13.2148 22.7479 14.3464 20.4859 14.9597 18.676C15.6955 18.7217 16.4277 18.8132 17.1517 18.9498C18.8754 19.2914 20.6513 19.2914 22.375 18.9498C23.0988 18.8139 23.8306 18.7226 24.5661 18.6764C25.1794 20.4864 26.3105 22.7493 27.1757 24.369C27.6099 25.1824 27.836 26.087 27.8344 27.005ZM32.1884 17.1469C31.9659 17.4162 31.6796 17.6281 31.3544 17.7643C31.0293 17.9004 30.6751 17.9566 30.3228 17.928C27.8438 17.7434 24.6674 17.6573 22.2091 18.1423C20.5949 18.4623 18.9316 18.4623 17.3174 18.1423C14.8679 17.6592 11.6981 17.742 9.20371 17.928C8.85108 17.9546 8.49713 17.8972 8.17197 17.7608C7.84682 17.6244 7.5601 17.413 7.33622 17.1446C7.11233 16.8762 6.95792 16.5588 6.88611 16.2193C6.8143 15.8798 6.82723 15.5283 6.9238 15.1947C7.53352 13.0712 9.13551 10.1388 13.3058 8.23135C15.3271 7.30405 17.5316 6.8234 19.7632 6.8234C21.9949 6.8234 24.1994 7.30405 26.2207 8.23135C30.391 10.1383 31.993 13.0712 32.6027 15.1945C32.7011 15.5284 32.7148 15.8808 32.6426 16.2211C32.5704 16.5613 32.4145 16.8792 32.1884 17.1469Z" fill="black"/>
</svg>
