<?xml version="1.0" encoding="UTF-8"?>
<svg id="Layer_1" data-name="Layer 1" xmlns="http://www.w3.org/2000/svg" version="1.1" viewBox="0 0 324.21 324.21">
  <defs>
    <style>
      .cls-1 {
        fill: #e2cd20;
        stroke-width: 0px;
      }
    </style>
  </defs>
  <polygon class="cls-1" points="324.21 162.11 264.95 178.43 316.32 212.21 254.91 209.36 293.25 257.41 235.72 235.72 257.41 293.25 209.36 254.91 212.21 316.32 178.43 264.95 162.11 324.21 145.78 264.95 112.01 316.32 114.85 254.91 66.8 293.25 88.49 235.72 30.96 257.41 69.31 209.36 7.9 212.21 59.27 178.43 0 162.11 59.27 145.78 7.9 112.01 69.31 114.85 30.96 66.8 88.49 88.49 66.8 30.96 114.85 69.31 112.01 7.9 145.78 59.27 162.11 0 178.43 59.27 212.21 7.9 209.36 69.31 257.41 30.96 235.72 88.49 293.25 66.8 254.91 114.85 316.32 112.01 264.95 145.78 324.21 162.11"/>
</svg>