<?xml version="1.0" encoding="UTF-8"?>
<svg id="Layer_1" data-name="Layer 1" xmlns="http://www.w3.org/2000/svg" version="1.1" viewBox="0 0 282.7 326.43">
  <defs>
    <style>
      .cls-1 {
        fill: #3f2369;
        stroke-width: 0px;
      }
    </style>
  </defs>
  <path class="cls-1" d="M141.35,0q0,108.81,0,0C121.91,108.81,103.95,119.18,0,81.61q94.23,54.41,0,0c84.51,71.24,84.51,91.98,0,163.22q94.23-54.41,0,0c103.95-37.57,121.91-27.2,141.35,81.61q0-108.81,0,0c19.44-108.81,37.4-119.18,141.35-81.61q-94.23-54.41,0,0c-84.51-71.24-84.51-91.98,0-163.22q-94.23,54.41,0,0C178.75,119.18,160.79,108.81,141.35,0Z"/>
</svg>