<?xml version="1.0" encoding="UTF-8"?>
<svg id="Layer_1" data-name="Layer 1" xmlns="http://www.w3.org/2000/svg" version="1.1" viewBox="0 0 512 565.89">
  <defs>
    <style>
      .cls-1 {
        fill: #c32026;
        stroke-width: 0px;
      }
    </style>
  </defs>
  <path class="cls-1" d="M504.32,563.17c-33.67,22.45-33.26-100.7-66.78-123.37s-86.18,55.19-119.7,32.52c-33.52-22.67,16.39-108.47-19.88-126.4-36.27-17.94-74.14,73.81-112.51,60.94-38.36-12.87-8.46-101.99-46.83-114.86C100.26,279.13,2.65,354.22.05,313.84c-2.61-40.38,103.84,21.55,140.23,3.85,36.39-17.69-4.71-102.23,31.69-119.92,36.39-17.69,85.74,68.43,119.41,45.98,33.67-22.45-26.85-101.12,3.48-127.91,30.33-26.79,92.55,43.66,122.89,16.88,30.33-26.79,14.1-148.87,50.38-130.93,36.27,17.93-70.58,79.16-73.45,119.52-2.87,40.36,90.89,47.04,88.01,87.4-2.87,40.36-102.13,40.03-99.53,80.42,2.6,40.38,101,27.3,109.03,66.96,8.03,39.66-90.41,74.63-71.62,110.47,31.3,59.71,117.44,74.16,83.77,96.61Z"/>
</svg>