<svg width="40" height="41" viewBox="0 0 40 41" fill="none" xmlns="http://www.w3.org/2000/svg">
<ellipse cx="20.1964" cy="22.5788" rx="12.5357" ry="12.6316" fill="#C50000" fill-opacity="0.7"/>
<path d="M29.0452 11.7698C28.6393 11.286 25.9407 8.30333 21.9169 9.27307V6.95058C21.9162 6.62865 21.7893 6.32014 21.564 6.09263C21.3387 5.86512 21.0334 5.73717 20.7149 5.73682H19.0036C18.6849 5.73717 18.3794 5.8653 18.154 6.0931C17.9287 6.32089 17.802 6.62975 17.8016 6.9519V9.29932C16.4427 9.23805 12.7803 9.33328 11.2248 11.8507C7.24857 14.418 4.875 18.5545 4.875 22.938C4.87605 30.4778 11.748 36.614 20.197 36.614C28.6459 36.614 35.5179 30.4778 35.5179 22.9353C35.5179 18.5004 33.0992 14.3329 29.0452 11.7698ZM18.2109 10.2579C18.275 10.2649 18.3399 10.2582 18.4013 10.2382C18.4627 10.2182 18.5192 10.1854 18.5672 10.1418C18.6152 10.0983 18.6536 10.0451 18.6799 9.98555C18.7063 9.92603 18.7199 9.86159 18.72 9.79639V6.95058C18.7204 6.87478 18.7504 6.80223 18.8036 6.74876C18.8567 6.69529 18.9286 6.66524 19.0036 6.66517H20.7149C20.7901 6.66531 20.8622 6.69557 20.9153 6.74931C20.9685 6.80305 20.9984 6.8759 20.9986 6.9519V9.7391V9.74414C20.9986 9.74945 20.9986 9.75475 20.9986 9.76032V9.88631C20.9985 9.95965 21.0157 10.032 21.0486 10.0973C21.0816 10.1626 21.1294 10.2192 21.1881 10.2622C21.2469 10.3052 21.3149 10.3336 21.3865 10.3449C21.4582 10.3563 21.5315 10.3503 21.6005 10.3274C22.5666 9.99876 23.5995 9.9239 24.6021 10.1099C25.6047 10.2959 26.5441 10.7365 27.3318 11.3905C26.1666 11.2814 24.9934 11.2942 23.8308 11.4287C23.7368 11.4408 23.6489 11.4819 23.579 11.5465C23.5091 11.611 23.4607 11.6959 23.4404 11.7894C23.42 11.8829 23.4288 11.9804 23.4655 12.0687C23.5022 12.1569 23.565 12.2315 23.6453 12.2823C24.8789 13.0345 25.7973 14.2175 26.2267 15.6077C24.9241 14.5252 23.3675 13.8005 21.707 13.5037C21.6455 13.4962 21.5832 13.5013 21.5237 13.5187C21.4643 13.5362 21.4089 13.5656 21.361 13.6052C21.3131 13.6449 21.2736 13.694 21.245 13.7494C21.2163 13.8049 21.1991 13.8657 21.1943 13.9281C21.0792 15.6343 20.7082 17.3128 20.0941 18.9062C18.9619 16.67 18.9637 14.0451 18.9637 14.0156C18.9644 13.9 18.9223 13.7882 18.8457 13.7022C18.7691 13.6162 18.6636 13.5622 18.5497 13.5507C18.3767 13.533 18.206 13.5242 18.0378 13.5242C16.3747 13.5242 14.9505 14.3241 13.9623 15.0971C14.6182 13.9772 15.5085 13.0159 16.5707 12.2807C16.6376 12.2381 16.6924 12.1787 16.7299 12.1085C16.7674 12.0382 16.7863 11.9593 16.7848 11.8794C16.7833 11.7996 16.7615 11.7215 16.7214 11.6526C16.6814 11.5838 16.6244 11.5266 16.556 11.4865C15.6471 10.9661 14.5869 10.7828 13.5585 10.9682C15.5238 9.98074 18.1766 10.2529 18.2109 10.2569V10.2579ZM20.197 35.6856C12.2552 35.6856 5.79441 29.9659 5.79441 22.9353C5.79441 18.8434 8.03784 14.9724 11.7958 12.5804C11.8157 12.5674 13.6238 11.4399 15.4123 11.9913C14.4677 12.7653 12.8146 14.4133 12.4043 16.7238C12.3862 16.8255 12.4022 16.9304 12.4497 17.0218C12.4973 17.1133 12.5737 17.1861 12.6668 17.2287C12.7599 17.2713 12.8644 17.2813 12.9637 17.2571C13.0631 17.2329 13.1516 17.1759 13.2153 17.0951C13.2371 17.0686 15.3265 14.4554 18.0417 14.4554H18.0553C18.1078 15.4867 18.3807 18.0935 19.7609 20.1693C19.8029 20.2324 19.8596 20.2841 19.9261 20.3199C19.9925 20.3556 20.0666 20.3744 20.1419 20.3744H20.1597C20.2379 20.3712 20.314 20.3479 20.3808 20.3067C20.4476 20.2655 20.5029 20.2077 20.5415 20.1388C20.5911 20.0505 21.7057 18.0235 22.061 14.5212C23.7777 14.9717 25.3389 15.8904 26.5741 17.1771C26.6379 17.243 26.7197 17.2881 26.8091 17.3068C26.8985 17.3255 26.9913 17.3168 27.0758 17.2819C27.1602 17.247 27.2325 17.1875 27.2833 17.1109C27.3342 17.0343 27.3613 16.9442 27.3612 16.8519C27.3126 15.9756 27.0914 15.1179 26.7104 14.3293C26.3294 13.5406 25.7964 12.8368 25.1427 12.2592C26.287 12.1923 27.4348 12.2915 28.5512 12.5536C32.339 14.9456 34.5995 18.8214 34.5995 22.9364C34.5995 29.9659 28.1387 35.6856 20.197 35.6856Z" fill="#030303"/>
<path d="M24.2755 32.1284C22.9572 32.5549 21.5811 32.7706 20.1969 32.7677C20.0751 32.7677 19.9583 32.8166 19.8722 32.9036C19.7861 32.9907 19.7377 33.1087 19.7377 33.2318C19.7377 33.355 19.7861 33.473 19.8722 33.5601C19.9583 33.6471 20.0751 33.696 20.1969 33.696C21.6765 33.6994 23.1475 33.469 24.5568 33.0133C24.6142 32.9946 24.6674 32.9647 24.7134 32.9252C24.7593 32.8858 24.7972 32.8376 24.8247 32.7833C24.8522 32.7291 24.8689 32.6699 24.8738 32.6091C24.8787 32.5484 24.8717 32.4872 24.8533 32.4292C24.8348 32.3712 24.8052 32.3174 24.7662 32.2709C24.7271 32.2245 24.6794 32.1862 24.6258 32.1584C24.5721 32.1306 24.5136 32.1137 24.4535 32.1087C24.3934 32.1038 24.3329 32.1108 24.2755 32.1295V32.1284Z" fill="#030303"/>
<path d="M32.1722 22.4712C32.0505 22.4712 31.9337 22.5201 31.8476 22.6071C31.7614 22.6942 31.7131 22.8123 31.7131 22.9354C31.7131 25.8552 30.1993 28.6076 27.56 30.4866C27.4604 30.5575 27.3927 30.6655 27.3719 30.7869C27.3511 30.9082 27.3788 31.0329 27.449 31.1336C27.5191 31.2342 27.626 31.3026 27.746 31.3237C27.866 31.3447 27.9894 31.3167 28.0889 31.2458C30.9752 29.1904 32.6314 26.1615 32.6314 22.9354C32.6314 22.8123 32.583 22.6943 32.4969 22.6072C32.4108 22.5202 32.294 22.4713 32.1722 22.4712Z" fill="#030303"/>
</svg>
